<svg width="61" height="96" viewBox="0 0 61 96" fill="none" xmlns="http://www.w3.org/2000/svg">
<g clip-path="url(#clip0_95_209)">
<path d="M0.75 32.75L15.25 47.25" stroke="white" style="stroke:white;stroke-opacity:1;" stroke-width="1.5" stroke-linecap="round"/>
<path d="M6.32694 39.0769C6.74116 39.0769 7.07694 38.7411 7.07694 38.3269C7.07694 37.9127 6.74116 37.5769 6.32694 37.5769V38.3269V39.0769ZM2.42283 41.8654C2.83705 41.8654 3.17283 41.5296 3.17283 41.1154C3.17283 40.7012 2.83705 40.3654 2.42283 40.3654V41.1154V41.8654ZM3.16308 38.8907C3.41105 39.2225 3.88104 39.2904 4.21282 39.0424C4.54461 38.7945 4.61255 38.3245 4.36458 37.9927L3.76383 38.4417L3.16308 38.8907ZM6.32694 38.3269V37.5769H5.4231V38.3269V39.0769H6.32694V38.3269ZM5.4231 44.3269V45.0769H9.11899V44.3269V43.5769H5.4231V44.3269ZM2.42283 41.1154V40.3654C1.91303 40.3654 1.49976 39.9521 1.49976 39.4423H0.749756H-0.000244141C-0.000244141 40.7805 1.0846 41.8654 2.42283 41.8654V41.1154ZM0.749756 39.4423H1.49976C1.49976 38.9325 1.91303 38.5192 2.42283 38.5192V37.7692V37.0192C1.0846 37.0192 -0.000244141 38.1041 -0.000244141 39.4423H0.749756ZM2.42283 37.7692V38.5192C2.72513 38.5192 2.99348 38.6638 3.16308 38.8907L3.76383 38.4417L4.36458 37.9927C3.924 37.4032 3.21816 37.0192 2.42283 37.0192V37.7692ZM9.11899 44.3269V45.0769C10.2218 45.0769 11.2627 44.5671 11.9387 43.6958L11.3462 43.236L10.7536 42.7763C10.3617 43.2814 9.75831 43.5769 9.11899 43.5769V44.3269ZM2.4231 41.3269H1.6731C1.6731 43.398 3.35203 45.0769 5.4231 45.0769V44.3269V43.5769C4.18045 43.5769 3.1731 42.5696 3.1731 41.3269H2.4231ZM5.4231 38.3269V37.5769C3.35203 37.5769 1.6731 39.2559 1.6731 41.3269H2.4231H3.1731C3.1731 40.0843 4.18045 39.0769 5.4231 39.0769V38.3269Z" fill="white" style="fill:white;fill-opacity:1;"/>
<path d="M7.5001 44C7.5001 43.7346 7.5001 43.6019 7.48543 43.4905C7.38416 42.7213 6.77883 42.1159 6.00957 42.0147C5.89817 42 5.76548 42 5.5001 42H5.40015" stroke="white" style="stroke:white;stroke-opacity:1;" stroke-width="1.5" stroke-linecap="round"/>
<path d="M13.0193 41.704C12.6051 41.704 12.2693 42.0398 12.2693 42.454C12.2693 42.8682 12.6051 43.204 13.0193 43.204V42.454V41.704ZM14.1124 38.2782L14.4805 37.6247L14.4766 37.6226L14.1124 38.2782ZM13.4145 37.802L13.9425 37.2694L13.9425 37.2694L13.4145 37.802ZM10.2952 34.7102L9.76718 35.2429L9.76718 35.2429L10.2952 34.7102ZM8.81361 35.9265L9.36856 35.4219H9.36856L8.81361 35.9265ZM10.0729 34.533L10.5189 33.93L10.5189 33.93L10.0729 34.533ZM10.1863 34.6168L9.74036 35.2199L9.74036 35.2199L10.1863 34.6168ZM8.59355 35.5089L9.3234 35.3363V35.3363L8.59355 35.5089ZM14.1124 38.2782L13.7443 38.9317L13.7482 38.9338L14.1124 38.2782ZM13.6647 38.0218L13.2453 38.6436V38.6436L13.6647 38.0218ZM13.567 37.948L14.0504 37.3746L14.0504 37.3746L13.567 37.948ZM15.2501 40.2232H14.5001C14.5001 41.041 13.8371 41.704 13.0193 41.704V42.454V43.204C14.6655 43.204 16.0001 41.8695 16.0001 40.2232H15.2501ZM14.1124 38.2782L13.7444 38.9317C14.1971 39.1866 14.5001 39.67 14.5001 40.2232H15.2501H16.0001C16.0001 39.1067 15.3859 38.1346 14.4805 37.6247L14.1124 38.2782ZM13.4145 37.802L13.9425 37.2694L10.8231 34.1775L10.2952 34.7102L9.76718 35.2429L12.8865 38.3347L13.4145 37.802ZM8.81361 35.9265L8.25865 36.431L9.68915 38.0045L10.2441 37.5L10.7991 36.9955L9.36856 35.4219L8.81361 35.9265ZM10.0729 34.533L9.62698 35.136L9.74036 35.2199L10.1863 34.6168L10.6323 34.0138L10.5189 33.93L10.0729 34.533ZM8.59355 35.5089L9.3234 35.3363C9.31012 35.2801 9.318 35.2436 9.32915 35.2176C9.34226 35.187 9.36761 35.1549 9.40521 35.1301C9.44281 35.1053 9.48233 35.0946 9.5156 35.0946C9.54389 35.0946 9.58058 35.1017 9.62698 35.136L10.0729 34.533L10.5189 33.93C9.24999 32.9916 7.50037 34.1458 7.8637 35.6816L8.59355 35.5089ZM8.81361 35.9265L9.36856 35.4219C9.34649 35.3977 9.33096 35.3682 9.3234 35.3363L8.59355 35.5089L7.8637 35.6816C7.92975 35.9608 8.06565 36.2187 8.25865 36.431L8.81361 35.9265ZM10.2952 34.7102L10.8231 34.1775C10.7635 34.1184 10.6997 34.0637 10.6323 34.0138L10.1863 34.6168L9.74036 35.2199C9.74984 35.2269 9.75881 35.2346 9.76718 35.2429L10.2952 34.7102ZM14.1124 38.2782L14.4766 37.6226L14.4766 37.6226L14.1124 38.2782L13.7482 38.9338L13.7482 38.9338L14.1124 38.2782ZM14.1124 38.2782L14.4804 37.6247C14.3431 37.5473 14.2429 37.4909 14.1721 37.4505C14.1366 37.4303 14.1111 37.4155 14.0933 37.405C14.0714 37.3921 14.073 37.3925 14.084 37.4L13.6647 38.0218L13.2453 38.6436C13.3165 38.6916 13.4971 38.7924 13.7443 38.9317L14.1124 38.2782ZM13.4145 37.802L12.8865 38.3347C12.9542 38.4018 13.0194 38.4673 13.0835 38.5213L13.567 37.948L14.0504 37.3746C14.0511 37.3751 14.046 37.3709 14.0274 37.353C14.0081 37.3344 13.983 37.3096 13.9425 37.2694L13.4145 37.802ZM13.6647 38.0218L14.084 37.4C14.0761 37.3946 14.0693 37.3901 14.0641 37.3866C14.0585 37.3828 14.0556 37.3809 14.0535 37.3794C14.0494 37.3766 14.0563 37.3812 14.0662 37.3887C14.0761 37.3962 14.0824 37.4016 14.0786 37.3984C14.0766 37.3967 14.0739 37.3944 14.0688 37.3901C14.064 37.3861 14.0578 37.3808 14.0504 37.3746L13.567 37.948L13.0835 38.5213C13.0921 38.5286 13.1076 38.5417 13.1149 38.5478C13.1253 38.5566 13.1417 38.5702 13.162 38.5856C13.1824 38.6009 13.2 38.613 13.2112 38.6206C13.2191 38.626 13.236 38.6373 13.2453 38.6436L13.6647 38.0218Z" fill="white" style="fill:white;fill-opacity:1;"/>
<path d="M10.246 37.4985C9.74598 37.4985 9.46099 38.2369 9.67291 38.5281" stroke="white" style="stroke:white;stroke-opacity:1;" stroke-width="1.5" stroke-linecap="round"/>
</g>
<rect x="5.25" y="16.75" width="5.5" height="5.5" rx="2.75" stroke="white" style="stroke:white;stroke-opacity:1;" stroke-width="1.5"/>
<path d="M3 31.25C3 30.3207 3 29.856 3.07686 29.4696C3.39249 27.8829 4.63288 26.6425 6.21964 26.3269C6.60603 26.25 7.07069 26.25 8 26.25C8.92931 26.25 9.39397 26.25 9.78036 26.3269C11.3671 26.6425 12.6075 27.8829 12.9231 29.4696C13 29.856 13 30.3207 13 31.25" stroke="white" style="stroke:white;stroke-opacity:1;" stroke-width="1.5" stroke-linecap="round"/>
<g clip-path="url(#clip1_95_209)">
<path d="M7.30469 0.959686C7.75656 0.812875 8.24344 0.812875 8.69531 0.959686C8.90612 1.02818 9.13922 1.16405 9.48633 1.45871C9.84019 1.75911 10.2615 2.17918 10.8643 2.78195L14.0635 5.98117C14.6076 6.52526 14.7896 6.71507 14.918 6.92453C15.0413 7.12583 15.1324 7.34536 15.1875 7.57492C15.2448 7.81371 15.25 8.07627 15.25 8.84543V11.1999C15.25 12.0522 15.2497 12.6465 15.2119 13.1091C15.1748 13.5628 15.1054 13.8237 15.0049 14.0212C14.7892 14.4445 14.4448 14.7889 14.0215 15.0046C13.824 15.1052 13.5632 15.1746 13.1094 15.2116C12.6468 15.2494 12.0525 15.2497 11.2002 15.2497H4.7998C3.94745 15.2497 3.35322 15.2494 2.89062 15.2116C2.43678 15.1746 2.17602 15.1052 1.97852 15.0046C1.55518 14.7889 1.21082 14.4446 0.995117 14.0212C0.89455 13.8237 0.825152 13.5628 0.788086 13.1091C0.750307 12.6465 0.75 12.0522 0.75 11.1999V8.84543C0.75 8.07627 0.755218 7.81371 0.8125 7.57492C0.867613 7.34536 0.958684 7.12583 1.08203 6.92453C1.21039 6.71507 1.39243 6.52527 1.93652 5.98117L5.13574 2.78195C5.73852 2.17918 6.15982 1.75911 6.51367 1.45871C6.86078 1.16405 7.09388 1.02818 7.30469 0.959686Z" stroke="white" style="stroke:white;stroke-opacity:1;" stroke-width="1.5"/>
</g>
<path d="M4 49.75H5.22461C6.02735 49.75 6.30195 49.7554 6.5498 49.8174C6.78774 49.8769 7.01441 49.9748 7.2207 50.1074C7.43556 50.2456 7.62715 50.4423 8.17676 51.0273L8.18066 51.0322L8.59668 51.4736L8.81836 51.71H11.2002C12.0525 51.71 12.6468 51.7103 13.1094 51.748C13.5632 51.7851 13.824 51.8545 14.0215 51.9551C14.4448 52.1708 14.7892 52.5151 15.0049 52.9385C15.1055 53.136 15.1748 53.3968 15.2119 53.8506C15.2497 54.3132 15.25 54.9074 15.25 55.7598V58.2002C15.25 59.0525 15.2497 59.6468 15.2119 60.1094C15.1748 60.5632 15.1055 60.824 15.0049 61.0215C14.7892 61.4448 14.4448 61.7892 14.0215 62.0049C13.824 62.1055 13.5632 62.1748 13.1094 62.2119C12.6468 62.2497 12.0525 62.25 11.2002 62.25H4.7998C3.94745 62.25 3.35322 62.2497 2.89062 62.2119C2.4368 62.1748 2.17602 62.1055 1.97852 62.0049C1.55515 61.7892 1.21083 61.4448 0.995117 61.0215C0.894492 60.824 0.825167 60.5632 0.788086 60.1094C0.75029 59.6468 0.75 59.0525 0.75 58.2002V53C0.75 52.022 0.756966 51.68 0.827148 51.418C1.0352 50.6415 1.64151 50.0352 2.41797 49.8271C2.68003 49.757 3.02195 49.75 4 49.75Z" stroke="white" style="stroke:white;stroke-opacity:1;" stroke-width="1.5"/>
<path d="M9.14286 50.96L8.40126 51.6692C7.88716 52.1608 7.6301 52.4066 7.33327 52.5822C7.07005 52.7378 6.78458 52.8524 6.48675 52.9218C6.15087 53 5.79521 53 5.08388 53H0" stroke="white" style="stroke:white;stroke-opacity:1;" stroke-width="1.5"/>
<g clip-path="url(#clip2_95_209)">
<path d="M8.78992 76.6789L10.1339 78.0229C10.6273 78.5163 10.874 78.763 11.1357 78.9029C11.7248 79.2177 12.4322 79.2177 13.0213 78.9029C13.2829 78.763 13.5296 78.5163 14.023 78.0229C14.5164 77.5295 14.7631 77.2828 14.903 77.0212C15.2178 76.4321 15.2178 75.7247 14.903 75.1356C14.7631 74.8739 14.5164 74.6272 14.023 74.1338L12.679 72.7898M8.78992 76.6789L12.679 72.7898M8.78992 76.6789L5.58337 75.913C4.89219 75.7479 4.5466 75.6654 4.26574 75.4879C4.01736 75.3308 3.80662 75.121 3.64853 74.8733C3.46976 74.5933 3.38571 74.248 3.2176 73.5576L1.17717 65.1771M12.679 72.7898L11.9131 69.5833C11.748 68.8921 11.6655 68.5465 11.488 68.2656C11.3309 68.0173 11.1211 67.8065 10.8734 67.6484C10.5934 67.4697 10.2481 67.3856 9.55767 67.2175L1.17717 65.1771M1.17717 65.1771L7.0108 71.0107" stroke="white" style="stroke:white;stroke-opacity:1;" stroke-width="1.5" stroke-linecap="round" stroke-linejoin="round"/>
</g>
<g clip-path="url(#clip3_95_209)">
<path d="M15.2392 92.5893C15.2392 92.8503 15.1812 93.1185 15.058 93.3795C14.9347 93.6405 14.7752 93.887 14.565 94.119C14.2097 94.5105 13.8182 94.7933 13.376 94.9745C12.941 95.1558 12.4697 95.25 11.9622 95.25C11.2227 95.25 10.4325 95.076 9.59874 94.7208C8.76499 94.3655 7.93124 93.887 7.10474 93.2853C6.27099 92.6763 5.48074 92.002 4.72674 91.2553C3.97999 90.5013 3.30574 89.711 2.70399 88.8845C2.10949 88.058 1.63099 87.2315 1.28299 86.4123C0.934986 85.5858 0.760986 84.7955 0.760986 84.0415C0.760986 83.5485 0.847986 83.0773 1.02199 82.6423C1.19599 82.2 1.47149 81.794 1.85574 81.4315C2.31974 80.9748 2.82724 80.75 3.36374 80.75C3.56674 80.75 3.76974 80.7935 3.95099 80.8805C4.13949 80.9675 4.30624 81.098 4.43674 81.2865L6.11874 83.6573C6.24924 83.8385 6.34349 84.0053 6.40874 84.1648C6.47399 84.317 6.51024 84.4693 6.51024 84.607C6.51024 84.781 6.45949 84.955 6.35799 85.1217C6.26374 85.2885 6.12599 85.4625 5.95199 85.6365L5.40099 86.2092C5.32124 86.289 5.28499 86.3833 5.28499 86.4993C5.28499 86.5573 5.29224 86.608 5.30674 86.666C5.32849 86.724 5.35024 86.7675 5.36474 86.811C5.49524 87.0502 5.71999 87.362 6.03899 87.739C6.36524 88.116 6.71324 88.5003 7.09024 88.8845C7.48174 89.2688 7.85874 89.624 8.24299 89.9502C8.61999 90.2693 8.93174 90.4868 9.17824 90.6173C9.21449 90.6318 9.25799 90.6535 9.30874 90.6753C9.36674 90.697 9.42474 90.7042 9.48999 90.7042C9.61324 90.7042 9.70749 90.6608 9.78724 90.581L10.3382 90.0373C10.5195 89.856 10.6935 89.7183 10.8602 89.6313C11.027 89.5298 11.1937 89.479 11.375 89.479C11.5127 89.479 11.6577 89.508 11.8172 89.5733C11.9767 89.6385 12.1435 89.7328 12.3247 89.856L14.7245 91.5598C14.913 91.6903 15.0435 91.8425 15.1232 92.0237C15.1957 92.205 15.2392 92.3863 15.2392 92.5893Z" stroke="white" style="stroke:white;stroke-opacity:1;" stroke-width="1.5" stroke-miterlimit="10"/>
</g>
<path d="M39.4419 16.9303C39.1436 16.9381 39.0062 17.2946 39.2173 17.5056L52.0288 30.3149C52.9506 31.2366 54.2886 31.743 55.4702 31.1925C58.0144 30.0071 59.7885 27.336 59.7885 24.2308C59.7833 22.1375 58.9962 20.2409 57.7115 18.8654L45.7692 6.92308C44.5266 5.68044 42.5119 5.68044 41.2692 6.92308C40.0266 8.16572 40.0266 10.1804 41.2692 11.4231L45.5962 15.75L45.204 15.9461C44.5569 16.2696 44.02 16.7775 43.661 17.4058C43.5812 17.5454 43.4066 17.6002 43.2583 17.5381C42.8421 17.3639 41.9841 17.0455 41.0962 16.9615C40.5959 16.9142 39.9437 16.9172 39.4419 16.9303Z" fill="white" style="fill:white;fill-opacity:1;"/>
<path d="M21.7115 32.1923C21.7115 34.4864 23.5713 36.3462 25.8654 36.3462H37.9808C38.1719 36.3462 38.3269 36.1912 38.3269 36V33.5769C38.3269 32.0475 37.0871 30.8077 35.5577 30.8077H31.4038C30.6391 30.8077 30.0192 30.1878 30.0192 29.4231C30.0192 28.6584 30.6391 28.0385 31.4038 28.0385H35.5577C38.6165 28.0385 41.0962 30.5181 41.0962 33.5769V36C41.0962 36.1912 41.2511 36.3462 41.4423 36.3462H46.819C47.6733 36.3462 48.4674 35.9061 48.9201 35.1816C48.9905 35.069 49.1473 35.0512 49.2412 35.1451L58.1442 44.0481C58.67 44.5738 59.5223 44.5738 60.0481 44.0481C60.5738 43.5223 60.5738 42.67 60.0481 42.1442L18.8558 0.951923C18.33 0.42619 17.4777 0.426191 16.9519 0.951923C16.4262 1.47766 16.4262 2.33004 16.9519 2.85577L30.1122 16.016C30.3648 16.2686 30.1052 16.7302 29.7519 16.6768C29.5105 16.6403 29.2675 16.6154 29.0545 16.6154C28.4843 16.6154 27.6999 16.7939 27.3031 16.8945C27.1535 16.9325 26.9957 16.8708 26.9082 16.7436C25.8471 15.2026 24.0705 14.1923 22.058 14.1923C18.808 14.1923 16.1734 16.827 16.1734 20.0769C16.1734 23.0997 18.4525 25.5901 21.386 25.9236C21.5682 25.9443 21.7115 26.0948 21.7115 26.2782V32.1923Z" fill="white" style="fill:white;fill-opacity:1;"/>
<mask id="path-14-inside-1_95_209" fill="white">
<ellipse cx="21.6458" cy="72" rx="1.14583" ry="1.25"/>
</mask>
<ellipse cx="21.6458" cy="72" rx="1.14583" ry="1.25" fill="white" style="fill:white;fill-opacity:1;"/>
<path d="M22.7917 72H20.506C20.506 71.6193 20.8331 70.9643 21.6458 70.9643V73.25V75.5357C23.7242 75.5357 25.0774 73.7614 25.0774 72H22.7917ZM21.6458 73.25V70.9643C22.4585 70.9643 22.7857 71.6193 22.7857 72H20.5H18.2143C18.2143 73.7614 19.5675 75.5357 21.6458 75.5357V73.25ZM20.5 72H22.7857C22.7857 72.3807 22.4585 73.0357 21.6458 73.0357V70.75V68.4643C19.5675 68.4643 18.2143 70.2386 18.2143 72H20.5ZM21.6458 70.75V73.0357C20.8331 73.0357 20.506 72.3807 20.506 72H22.7917H25.0774C25.0774 70.2386 23.7242 68.4643 21.6458 68.4643V70.75Z" fill="white" style="fill:white;fill-opacity:1;" mask="url(#path-14-inside-1_95_209)"/>
<mask id="path-16-inside-2_95_209" fill="white">
<ellipse cx="26.3541" cy="72" rx="1.14583" ry="1.25"/>
</mask>
<ellipse cx="26.3541" cy="72" rx="1.14583" ry="1.25" fill="white" style="fill:white;fill-opacity:1;"/>
<path d="M27.4999 72H25.2142C25.2142 71.6193 25.5414 70.9643 26.3541 70.9643V73.25V75.5357C28.4324 75.5357 29.7856 73.7614 29.7856 72H27.4999ZM26.3541 73.25V70.9643C27.1668 70.9643 27.494 71.6193 27.494 72H25.2083H22.9225C22.9225 73.7614 24.2757 75.5357 26.3541 75.5357V73.25ZM25.2083 72H27.494C27.494 72.3807 27.1668 73.0357 26.3541 73.0357V70.75V68.4643C24.2757 68.4643 22.9225 70.2386 22.9225 72H25.2083ZM26.3541 70.75V73.0357C25.5414 73.0357 25.2142 72.3807 25.2142 72H27.4999H29.7856C29.7856 70.2386 28.4324 68.4643 26.3541 68.4643V70.75Z" fill="white" style="fill:white;fill-opacity:1;" mask="url(#path-16-inside-2_95_209)"/>
<path d="M23.9963 67.4375C23.5158 67.4378 23.0354 67.5003 22.6235 67.625L22.3481 66.875C21.2469 66.875 20.6979 66.875 19.0445 67.625C17.3911 68.375 16.4394 74.8954 16.842 75.625C17.2447 76.3546 19.7787 76.9583 20.6964 77.125L21.2469 76.625C21.2469 76.625 20.5 76 20.5 75.5C21.6012 76 23.5595 76 24 76C24.4405 76 26.3988 76 27.5 75.5C27.5 76 26.7531 76.625 26.7531 76.625L27.3036 77.125C28.2213 76.9583 30.7553 76.3546 31.158 75.625C31.5606 74.8954 30.6089 68.375 28.9555 67.625C27.3021 66.875 26.7531 66.875 25.6519 66.875L25.3765 67.625C24.9646 67.5003 24.4842 67.4378 24.0037 67.4375" stroke="white" style="stroke:white;stroke-opacity:1;" stroke-width="1.5" stroke-linecap="round" stroke-linejoin="round"/>
<path d="M42.2761 67.6813C40.0519 68.6052 33.6388 71.2291 33.6388 71.2291C32.1189 71.8203 33.0087 72.3747 33.0087 72.3747C33.0087 72.3747 34.3062 72.8181 35.4183 73.1508C36.5304 73.4834 37.1234 73.1138 37.1234 73.1138L43.314 69.8248C42.3503 70.7856 40.7562 72.3009 39.4217 73.5203C38.8286 74.0377 39.1252 74.4812 39.3847 74.7029C40.3485 75.5159 42.9804 77.1789 43.1287 77.2898C43.314 77.4377 44.3519 78.1029 44.9822 77.9551C45.6124 77.8072 45.6864 76.9572 45.6864 76.9572C45.6864 76.9572 46.1684 73.9269 46.6132 71.1552C46.9097 69.1965 47.2063 67.3856 47.2434 66.8683C47.3546 65.6118 46.0201 66.1291 46.0201 66.1291C46.0201 66.1291 43.1287 67.3118 42.2761 67.6813Z" stroke="white" style="stroke:white;stroke-opacity:1;" stroke-width="1.5" stroke-linejoin="round"/>
<path d="M31.25 82.0748C30.6188 82.5214 29.92 82.863 29.1805 83.0864C28.7835 82.6286 28.256 82.304 27.6692 82.1568C27.0824 82.0095 26.4647 82.0465 25.8996 82.2629C25.3344 82.4793 24.8492 82.8645 24.5095 83.3665C24.1697 83.8686 23.9919 84.4632 24 85.0699V85.731C22.8417 85.7612 21.694 85.5035 20.6591 84.9809C19.6241 84.4584 18.7341 83.6872 18.0682 82.736C18.0682 82.736 15.4318 88.6864 21.3636 91.3311C20.0063 92.2553 18.3893 92.7188 16.75 92.6534C22.6818 95.9592 29.9318 92.6534 29.9318 85.05C29.9312 84.8659 29.9136 84.6822 29.8791 84.5013C30.5518 83.8358 31.0265 82.9956 31.25 82.0748Z" stroke="white" style="stroke:white;stroke-opacity:1;" stroke-width="1.5" stroke-linecap="round" stroke-linejoin="round"/>
<g clip-path="url(#clip4_95_209)">
<path d="M32 82L37.9175 87.0721C38.6566 87.7057 39.0262 88.0224 39.4407 88.1432C39.806 88.2496 40.194 88.2496 40.5593 88.1432C40.9738 88.0224 41.3434 87.7057 42.0825 87.0721L48 82" stroke="white" style="stroke:white;stroke-opacity:1;" stroke-width="1.5"/>
</g>
<rect x="32.75" y="82.75" width="14.5" height="10.5" rx="3.25" stroke="white" style="stroke:white;stroke-opacity:1;" stroke-width="1.5"/>
<defs>
<clipPath id="clip0_95_209">
<rect width="16" height="16" fill="white" style="fill:white;fill-opacity:1;" transform="translate(0 32)"/>
</clipPath>
<clipPath id="clip1_95_209">
<rect width="16" height="16" fill="white" style="fill:white;fill-opacity:1;"/>
</clipPath>
<clipPath id="clip2_95_209">
<rect width="16" height="16" fill="white" style="fill:white;fill-opacity:1;" transform="translate(0 64)"/>
</clipPath>
<clipPath id="clip3_95_209">
<rect width="16" height="16" fill="white" style="fill:white;fill-opacity:1;" transform="translate(0 80)"/>
</clipPath>
<clipPath id="clip4_95_209">
<rect x="32" y="82" width="16" height="12" rx="4" fill="white" style="fill:white;fill-opacity:1;"/>
</clipPath>
</defs>
</svg>
